<?xml version="1.0" encoding="utf-8"?>
<!-- Generator: Adobe Illustrator 17.0.0, SVG Export Plug-In . SVG Version: 6.00 Build 0)  -->
<!DOCTYPE svg PUBLIC "-//W3C//DTD SVG 1.1//EN" "http://www.w3.org/Graphics/SVG/1.1/DTD/svg11.dtd">
<svg version="1.1" id="Layer_1" xmlns="http://www.w3.org/2000/svg" xmlns:xlink="http://www.w3.org/1999/xlink" x="0px" y="0px"
	 width="245.333px" height="27.976px" viewBox="0 0 245.333 27.976" enable-background="new 0 0 245.333 27.976"
	 xml:space="preserve">
<g>
	<defs>
		<polygon id="SVGID_1_" points="31.069,1.952 25.678,22.065 27.45,22.065 32.569,2.995 33.392,2.466 34.059,0 		"/>
	</defs>
	<clipPath id="SVGID_2_">
		<use xlink:href="#SVGID_1_"  overflow="visible"/>
	</clipPath>
	
		<linearGradient id="SVGID_3_" gradientUnits="userSpaceOnUse" x1="-26.1381" y1="810.4803" x2="-25.1381" y2="810.4803" gradientTransform="matrix(0 66.7111 66.7111 0 -54038.1328 1740.8152)">
		<stop  offset="0" style="stop-color:#FFFFFF"/>
		<stop  offset="0.1959" style="stop-color:#7BCDF3"/>
		<stop  offset="0.5635" style="stop-color:#1490D0"/>
		<stop  offset="0.8294" style="stop-color:#0088CE"/>
		<stop  offset="1" style="stop-color:#0088CE"/>
	</linearGradient>
	<rect x="25.678" y="0" clip-path="url(#SVGID_2_)" fill="url(#SVGID_3_)" width="8.381" height="22.065"/>
</g>
<g>
	<defs>
		<polygon id="SVGID_4_" points="3.497,16.962 0.747,27.257 3.204,27.975 8.606,27.975 12.244,14.377 		"/>
	</defs>
	<clipPath id="SVGID_5_">
		<use xlink:href="#SVGID_4_"  overflow="visible"/>
	</clipPath>
	
		<linearGradient id="SVGID_6_" gradientUnits="userSpaceOnUse" x1="-28.0851" y1="810.1288" x2="-27.0851" y2="810.1288" gradientTransform="matrix(0 41.1691 41.1691 0 -33345.75 1169.3796)">
		<stop  offset="0" style="stop-color:#FFFFFF"/>
		<stop  offset="0.1959" style="stop-color:#7BCDF3"/>
		<stop  offset="0.5635" style="stop-color:#1490D0"/>
		<stop  offset="0.8294" style="stop-color:#0088CE"/>
		<stop  offset="1" style="stop-color:#0088CE"/>
	</linearGradient>
	<rect x="0.747" y="14.377" clip-path="url(#SVGID_5_)" fill="url(#SVGID_6_)" width="11.497" height="13.598"/>
</g>
<g>
	<defs>
		<polygon id="SVGID_7_" points="30.399,22.076 30.772,22.076 39.14,3.785 241.768,3.785 241.874,3.425 36.314,0.005 		"/>
	</defs>
	<clipPath id="SVGID_8_">
		<use xlink:href="#SVGID_7_"  overflow="visible"/>
	</clipPath>
	
		<linearGradient id="SVGID_9_" gradientUnits="userSpaceOnUse" x1="-28.8807" y1="809.9852" x2="-27.8807" y2="809.9852" gradientTransform="matrix(0 35.5991 35.5991 0 -28698.6074 1020.2198)">
		<stop  offset="0" style="stop-color:#C6CDD1"/>
		<stop  offset="0.2555" style="stop-color:#9FA9B1"/>
		<stop  offset="0.5097" style="stop-color:#85919B"/>
		<stop  offset="0.7596" style="stop-color:#77848E"/>
		<stop  offset="1" style="stop-color:#72808A"/>
	</linearGradient>
	<rect x="30.399" y="0.005" clip-path="url(#SVGID_8_)" fill="url(#SVGID_9_)" width="211.475" height="22.071"/>
</g>
<polygon fill="#FFFFFF" points="159.208,16.432 169.383,14.564 165.794,27.976 156.125,27.976 "/>
<polygon fill="#FFFFFF" points="199.808,9.114 190.153,9.114 191.175,5.257 200.844,5.257 "/>
<g>
	<defs>
		<rect id="SVGID_10_" x="-27.326" y="-30.953" width="299.598" height="89.882"/>
	</defs>
	<clipPath id="SVGID_11_">
		<use xlink:href="#SVGID_10_"  overflow="visible"/>
	</clipPath>
	<path clip-path="url(#SVGID_11_)" fill="#FFFFFF" d="M216.997,7.707h8.544l0.672-2.449h-13.028c-1.459,0-2.793,0.41-4.003,1.234
		c-1.211,0.823-1.973,1.791-2.282,2.909l-0.46,1.683l-0.002,0.008h-4.322l-0.657,2.449h4.325l-3.854,14.427h9.656l3.866-14.427h6.02
		l0.672-2.449h-6.036l0.002-0.008L216.997,7.707z"/>
	<polygon clip-path="url(#SVGID_11_)" fill="#FFFFFF" points="244.199,11.092 239.819,11.092 241.376,5.258 231.81,5.258 
		230.245,11.092 224.628,11.092 223.969,13.541 229.588,13.541 225.72,27.968 235.318,27.968 239.166,13.541 243.527,13.541 	"/>
	<polygon clip-path="url(#SVGID_11_)" fill="#FFFFFF" points="194.742,27.968 185.087,27.968 189.602,11.095 199.271,11.095 	"/>
	<path clip-path="url(#SVGID_11_)" fill="#FFFFFF" d="M184.791,14.348c0-0.958-0.394-1.738-1.182-2.34
		c-0.666-0.51-1.527-0.834-2.491-0.912h-10.807l1.574-5.839h-9.67l-1.559,5.839h-24.165v0.018c-1.314,0.064-2.528,0.454-3.633,1.207
		c-1.212,0.822-1.973,1.79-2.282,2.908l-0.73,2.673c-0.093,0.277-0.139,0.572-0.139,0.88c0,0.958,0.395,1.738,1.181,2.341
		c0.667,0.509,1.529,0.833,2.492,0.912h11.42h0.004H144.8l-0.818,3.07h-35.589l2.999-11.14h6.443l-2.822,10.579l10.15-1.863
		l4.675-17.424h-9.669l-1.564,5.839l-10.908-0.01c-1.458,0-2.792,0.411-4.002,1.235c-1.212,0.822-1.973,1.79-2.282,2.908
		l-2.339,8.613c-0.093,0.278-0.14,0.573-0.14,0.881c0,0.957,0.396,1.737,1.182,2.34c0.667,0.509,1.528,0.834,2.491,0.912h40.622
		v0.002h4.455c1.459,0,2.793-0.411,4.003-1.234c1.211-0.823,1.973-1.791,2.282-2.909c0,0,0.837-3.216,0.837-3.523
		c0-0.958-0.395-1.738-1.182-2.341c-0.667-0.509-1.528-0.833-2.491-0.912h-11.387l0.809-3.093l34.794,0.016l-3.759,13.996h9.656
		l3.405-12.749C184.744,14.95,184.791,14.656,184.791,14.348"/>
	<path clip-path="url(#SVGID_11_)" fill="#FFFFFF" d="M23.374,23.848l5.871-21.91h-1.631l0.003,0.007
		c-2.545,0.072-9.98,0.779-11.797,6.32c-0.214,0.827-0.51,1.917-0.548,2.017l8.134-0.002l-2.363,1.508l-6.704,1.978L10.53,27.975
		h24.553l2.538-4.133L23.374,23.848z"/>
	<path clip-path="url(#SVGID_11_)" fill="#FFFFFF" d="M68.552,14.347c0-0.957-0.394-1.737-1.182-2.34
		c-0.666-0.509-1.527-0.834-2.491-0.912l-16.184-0.027c-1.458,0-2.793,0.411-4.003,1.233c-1.211,0.824-1.973,1.792-2.281,2.91
		l-2.274,8.632c-0.093,0.277-0.139,0.573-0.139,0.879c0,0.959,0.394,1.739,1.181,2.341c0.666,0.51,1.528,0.833,2.492,0.913
		L59.79,27.95c1.458,0,2.792-0.41,4.002-1.233c1.199-0.815,1.955-1.773,2.27-2.877l0.035-0.007l2.315-8.605
		C68.505,14.95,68.552,14.655,68.552,14.347 M56.136,25.014l-0.05,0.024l-0.018,0.067h-6.633l2.976-11.14h6.702L56.136,25.014z"/>
	<path clip-path="url(#SVGID_11_)" fill="#FFFFFF" d="M96.596,12.006c-0.667-0.508-1.529-0.832-2.491-0.911l-17.043-0.024
		l-0.666,2.462h12.057h0.002h-0.002l-0.556,2.061H76.771c-1.459,0-2.794,0.411-4.004,1.233c-1.139,0.775-1.866,1.684-2.207,2.721
		l-0.026,0.002l-1.15,4.292H69.37c-0.093,0.278-0.139,0.573-0.139,0.88c0,0.958,0.394,1.738,1.181,2.34
		c0.666,0.51,1.528,0.834,2.492,0.913L94.2,27.967l3.438-12.74c0.093-0.277,0.138-0.572,0.138-0.88
		C97.776,13.39,97.382,12.61,96.596,12.006 M85.331,25.105h-6.662l1.816-6.642h6.639L85.331,25.105z"/>
</g>
</svg>
